<svg xmlns="http://www.w3.org/2000/svg" width="30.317" height="24.111" viewBox="0 0 30.317 24.111">
  <g id="_3847908_arrow_back_left_icon" data-name="3847908_arrow_back_left_icon" transform="translate(-3.434 -11.194)">
    <path id="Path_795" data-name="Path 795" d="M4.384,25.05A32.27,32.27,0,0,1,10.652,29.5c1.745,1.638,2.707,3.7,4.274,5.449a1.26,1.26,0,0,0,2.1-.57c.463-3.455-2.172-6.553-5.235-9.01,6.589.142,13.177.5,19.73.855,2.992.142,2.956-4.487,0-4.63-6.589-.356-13.213-.641-19.8-.463a21.705,21.705,0,0,0,5.022-8.583c.392-1.318-1.318-1.816-2.066-.855A62.908,62.908,0,0,1,10.4,17.072a30.261,30.261,0,0,1-6.019,4.594,1.81,1.81,0,0,0-.926,1.852A1.579,1.579,0,0,0,4.384,25.05Z" fill="#4e4b4a"/>
  </g>
</svg>
