<svg id="_692155_translate_alteration_language_line-icon_logos_icon" data-name="692155_translate_alteration_language_line-icon_logos_icon" xmlns="http://www.w3.org/2000/svg" width="20.416" height="20.416" viewBox="0 0 20.416 20.416">
  <g id="Group_173" data-name="Group 173">
    <path id="Path_2211" data-name="Path 2211" d="M14.461,17.013H2.127A2.13,2.13,0,0,1,0,14.887V2.127A2.13,2.13,0,0,1,2.127,0H8.932a.425.425,0,0,1,.4.288L14.864,16.45a.426.426,0,0,1-.4.563ZM2.127.851A1.278,1.278,0,0,0,.851,2.127v12.76a1.278,1.278,0,0,0,1.276,1.276H13.866L8.628.851Z" fill="#f55e02"/>
  </g>
  <g id="Group_174" data-name="Group 174" transform="translate(9.783 3.403)">
    <path id="Path_2212" data-name="Path 2212" d="M20.007,21.013H13.2a.425.425,0,0,1-.4-.276l-1.276-3.4a.425.425,0,1,1,.8-.3L13.5,20.163h6.51a1.278,1.278,0,0,0,1.276-1.276V6.127a1.278,1.278,0,0,0-1.276-1.276H11.925a.425.425,0,1,1,0-.851h8.081a2.13,2.13,0,0,1,2.127,2.127v12.76A2.13,2.13,0,0,1,20.007,21.013Z" transform="translate(-11.5 -4)" fill="#f55e02"/>
  </g>
  <g id="Group_175" data-name="Group 175" transform="translate(11.059 16.162)">
    <path id="Path_2213" data-name="Path 2213" d="M13.425,23.253a.426.426,0,0,1-.32-.706l2.977-3.4a.426.426,0,1,1,.641.561l-2.977,3.4A.427.427,0,0,1,13.425,23.253Z" transform="translate(-13 -18.999)" fill="#f55e02"/>
  </g>
  <g id="Group_176" data-name="Group 176" transform="translate(3.402 5.133)">
    <path id="Path_2214" data-name="Path 2214" d="M8.679,12.81a.425.425,0,0,1-.4-.282L6.552,7.7,4.826,12.528a.425.425,0,1,1-.8-.286L6.151,6.287a.442.442,0,0,1,.8,0l2.127,5.955a.425.425,0,0,1-.258.544A.41.41,0,0,1,8.679,12.81Z" transform="translate(-4 -6.034)" fill="#f55e02"/>
  </g>
  <g id="Group_177" data-name="Group 177" transform="translate(4.679 8.507)">
    <path id="Path_2215" data-name="Path 2215" d="M7.627,10.851h-1.7a.425.425,0,1,1,0-.851h1.7a.425.425,0,1,1,0,.851Z" transform="translate(-5.5 -10)" fill="#f55e02"/>
  </g>
  <g id="Group_178" data-name="Group 178" transform="translate(11.909 8.507)">
    <path id="Path_2216" data-name="Path 2216" d="M20.38,10.851H14.425a.425.425,0,1,1,0-.851H20.38a.425.425,0,0,1,0,.851Z" transform="translate(-14 -10)" fill="#f55e02"/>
  </g>
  <g id="Group_179" data-name="Group 179" transform="translate(14.461 7.656)">
    <path id="Path_2217" data-name="Path 2217" d="M17.425,10.7A.425.425,0,0,1,17,10.276V9.425a.425.425,0,0,1,.851,0v.851A.425.425,0,0,1,17.425,10.7Z" transform="translate(-17 -9)" fill="#f55e02"/>
  </g>
  <g id="Group_180" data-name="Group 180" transform="translate(13.185 8.508)">
    <path id="Path_2218" data-name="Path 2218" d="M15.925,15.955a.425.425,0,0,1-.247-.772A8.965,8.965,0,0,0,18.9,10.426a.425.425,0,1,1,.851,0c0,1.121-1.639,4.07-3.581,5.451A.432.432,0,0,1,15.925,15.955Z" transform="translate(-15.5 -10.001)" fill="#f55e02"/>
  </g>
  <g id="Group_181" data-name="Group 181" transform="translate(13.186 10.634)">
    <path id="Path_2219" data-name="Path 2219" d="M19.328,17.179a.42.42,0,0,1-.287-.111c-.309-.282-3.027-2.793-3.51-3.982a.425.425,0,0,1,.788-.32,19.438,19.438,0,0,0,3.3,3.674.425.425,0,0,1-.288.739Z" transform="translate(-15.5 -12.5)" fill="#f55e02"/>
  </g>
</svg>
