<svg xmlns="http://www.w3.org/2000/svg" width="20.735" height="23.531" viewBox="0 0 20.735 23.531">
  <g id="logout" transform="translate(-5.93 -2)">
    <line id="Line_37" data-name="Line 37" x2="10.925" transform="translate(14.326 13.766)" fill="none" stroke="#f55e02" stroke-linecap="round" stroke-linejoin="round" stroke-width="2"/>
    <path id="Path_2220" data-name="Path 2220" d="M21.057,21.329V23.85H7.611V3.681H21.057V6.2h1.681V2.84A.84.84,0,0,0,21.9,2H6.77a.84.84,0,0,0-.84.84v21.85a.84.84,0,0,0,.84.84H21.9a.84.84,0,0,0,.84-.84V21.329Z" fill="#f55e02"/>
    <line id="Line_38" data-name="Line 38" x1="3.362" y2="3.362" transform="translate(21.889 13.766)" fill="none" stroke="#f55e02" stroke-linecap="round" stroke-linejoin="round" stroke-width="2"/>
    <line id="Line_39" data-name="Line 39" x1="3.362" y1="3.362" transform="translate(21.889 10.404)" fill="none" stroke="#f55e02" stroke-linecap="round" stroke-linejoin="round" stroke-width="2"/>
    <line id="Line_40" data-name="Line 40" y1="1.681" transform="translate(21.889 5.437)" fill="none" stroke="#f55e02" stroke-linecap="round" stroke-linejoin="round" stroke-width="2"/>
    <line id="Line_41" data-name="Line 41" y1="1.681" transform="translate(21.889 20.489)" fill="none" stroke="#f55e02" stroke-linecap="round" stroke-linejoin="round" stroke-width="2"/>
  </g>
</svg>
