<svg id="Layer_2" data-name="Layer 2" xmlns="http://www.w3.org/2000/svg" width="17.701" height="23.23" viewBox="0 0 17.701 23.23">
  <path id="Path_50" data-name="Path 50" d="M13.231,25.23a3.485,3.485,0,0,0,3.485-3.485h5.366l-.848-1.684a9.966,9.966,0,0,1-1.034-4.4V13.615a6.969,6.969,0,0,0-4.006-6.306,3.4,3.4,0,0,0,.521-1.824,3.485,3.485,0,0,0-6.969,0,3.4,3.4,0,0,0,.523,1.824,6.969,6.969,0,0,0-4.007,6.307v2.044a9.966,9.966,0,0,1-1.034,4.4L4.38,21.746H9.746A3.485,3.485,0,0,0,13.231,25.23Zm0-20.907a1.162,1.162,0,1,1-1.162,1.162A1.162,1.162,0,0,1,13.231,4.323Zm1.162,17.423a1.162,1.162,0,0,1-2.323,0Z" transform="translate(-4.38 -2)" fill="#fa8008"/>
</svg>
