<svg xmlns="http://www.w3.org/2000/svg" width="35.538" height="21" viewBox="0 0 35.538 21">
  <g id="_309041_users_group_people_icon" data-name="309041_users_group_people_icon" transform="translate(-1 -6)">
    <g id="Group_335" data-name="Group 335" transform="translate(9.077 6)">
      <path id="Path_2440" data-name="Path 2440" d="M10.846,10.846A4.76,4.76,0,0,1,15.692,6a4.76,4.76,0,0,1,4.846,4.846,4.76,4.76,0,0,1-4.846,4.846A4.76,4.76,0,0,1,10.846,10.846Zm4.846,8.077C8.262,18.923,6,24.254,6,24.254V27H25.385V24.254S23.123,18.923,15.692,18.923Z" transform="translate(-6 -6)" fill="#9e9e9e"/>
    </g>
    <g id="Group_338" data-name="Group 338" transform="translate(24.746 6)">
      <g id="Group_336" data-name="Group 336" transform="translate(0.485)">
        <ellipse id="Ellipse_24" data-name="Ellipse 24" cx="4.5" cy="4" rx="4.5" ry="4" transform="translate(-0.462)" fill="#9e9e9e"/>
      </g>
      <g id="Group_337" data-name="Group 337" transform="translate(0 11.308)">
        <path id="Path_2441" data-name="Path 2441" d="M20.223,13A7.519,7.519,0,0,0,15.7,14.292a9.968,9.968,0,0,1,5.169,5.169v.162h6.623v-2.1A7.516,7.516,0,0,0,20.223,13Z" transform="translate(-15.7 -13)" fill="#9e9e9e"/>
      </g>
    </g>
    <g id="Group_341" data-name="Group 341" transform="translate(24.746 6)">
      <g id="Group_339" data-name="Group 339" transform="translate(0.485)">
        <ellipse id="Ellipse_25" data-name="Ellipse 25" cx="4.5" cy="4" rx="4.5" ry="4" transform="translate(-0.462)" fill="#9e9e9e"/>
      </g>
      <g id="Group_340" data-name="Group 340" transform="translate(0 11.308)">
        <path id="Path_2442" data-name="Path 2442" d="M20.223,13A7.519,7.519,0,0,0,15.7,14.292a9.968,9.968,0,0,1,5.169,5.169v.162h6.623v-2.1A7.516,7.516,0,0,0,20.223,13Z" transform="translate(-15.7 -13)" fill="#9e9e9e"/>
      </g>
    </g>
    <g id="Group_344" data-name="Group 344" transform="translate(1 6)">
      <g id="Group_342" data-name="Group 342" transform="translate(3.231)">
        <ellipse id="Ellipse_26" data-name="Ellipse 26" cx="4.5" cy="4" rx="4.5" ry="4" transform="translate(-0.462)" fill="#9e9e9e"/>
      </g>
      <g id="Group_343" data-name="Group 343" transform="translate(0 11.308)">
        <path id="Path_2443" data-name="Path 2443" d="M8.269,13a7.519,7.519,0,0,1,4.523,1.292,9.968,9.968,0,0,0-5.169,5.169v.162H1v-2.1A7.516,7.516,0,0,1,8.269,13Z" transform="translate(-1 -13)" fill="#9e9e9e"/>
      </g>
    </g>
  </g>
</svg>
